PathFileType	4	(X/Y/Z)	pose_F01_0-62.trc
DataRate	CameraRate	NumFrames	NumMarkers	Units	OrigDataRate	OrigDataStartFrame	OrigNumFrames
30	30	5	21	m	30	0	62
Frame#	Time	CHip			RHip			RKnee			RAnkle			RBigToe			RSmallToe			RHeel			LHip			LKnee			LAnkle			LBigToe			LSmallToe			LHeel			Neck			Nose			RShoulder			RElbow			RWrist			LShoulder			LElbow			LWrist			
		X1	Y1	Z1	X2	Y2	Z2	X3	Y3	Z3	X4	Y4	Z4	X5	Y5	Z5	X6	Y6	Z6	X7	Y7	Z7	X8	Y8	Z8	X9	Y9	Z9	X10	Y10	Z10	X11	Y11	Z11	X12	Y12	Z12	X13	Y13	Z13	X14	Y14	Z14	X15	Y15	Z15	X16	Y16	Z16	X17	Y17	Z17	X18	Y18	Z18	X19	Y19	Z19	X20	Y20	Z20	X21	Y21	Z21	
0	0.0	-0.23162642135345995	1.864418678661437	-0.4712780203508401	-0.24786513044676137	1.8617643685654595	-0.4211050564232147	-0.2654178176023794	1.7201657755614121	-0.4667080757071926													-0.2172331921436188	1.8660458234911448	-0.5221722858587489	-0.2029750784299414	1.7258431523696907	-0.5305761110858654	-0.1482799429298197	1.6113400200834316	-0.2811517904728372	-0.18294542174325243	1.622108752665412	-0.5014387660159906	-0.18203098153222583	1.6207149638549703	-0.49968745361565514	-0.2151458484882325	1.612911700402419	-0.46126733904476874	-0.2238967892518987	2.0190499015776355	-0.5530540274743477	-0.22732577818392025	2.0683894106083485	-0.6579318563091375	-0.2568624067451709	2.0152100769229713	-0.48482687065828534	-0.3091460187458508	2.024993171144604	-0.3610184936540976	-0.2728706929407906	2.0396978095406406	-0.44886148423902233	-0.19299024762659783	2.0237118906495692	-0.6265323875559415	-1.1548887954634515	1.8799772969469337	0.2589840328473417	-0.13917055662943106	1.9265488216264082	-0.630929351644989
1	0.03333333333333333	-0.23130454110908594	1.868352708330135	-0.480771129580508	-0.2467016272959293	1.8674146328829455	-0.42756188465749584	-0.2652899890856333	1.7223782734705904	-0.46683096841808996													-0.21683757122437372	1.8697269519169915	-0.531739483055149	-0.20262819212619515	1.7293429380012448	-0.5311852295353279	-0.15379449540389348	1.613569951891263	-0.2982976702244219	-0.1834388528036396	1.6199635514076578	-0.5045692247783962	-0.1828626875806087	1.620933760561303	-0.5022993228356324	-0.2151458484882325	1.612911700402419	-0.46126733904476874	-0.22492434392420596	2.026537645790057	-0.5584355383045806	-0.2340258164739255	2.0751724318364593	-0.6361563856655278	-0.253087393127963	2.0288099581554366	-0.4847457587191839	-0.30260544848367615	2.0306385318749673	-0.3513937455045958	-0.2734810652437531	2.05546672749289	-0.44196993117358685	-0.19468066299786835	2.022993097556244	-0.6324206656295004	-1.1880876232658355	1.8780210182434944	0.3086622218208388	-0.1453119532258686	1.9213807734648405	-0.6329774476730916
2	0.06666666666666667	-0.23098266086471192	1.872286737998833	-0.4902642388101759	-0.2455381241450972	1.8730648972004316	-0.43401871289177696	-0.26516216056888714	1.7245907713797686	-0.46695386112898735													-0.21644195030512864	1.8734080803428381	-0.541306680251549	-0.2022813058224489	1.732842723632799	-0.5317943479847903	-0.15930904787796726	1.6157998836990943	-0.31544354997600654	-0.1839322838640268	1.6178183501499035	-0.5076996835408017	-0.18369439362899156	1.6211525572676357	-0.5049111920556096	-0.2151458484882325	1.612911700402419	-0.46126733904476874	-0.2259518985965132	2.034025390002478	-0.5638170491348135	-0.24072585476393077	2.08195545306457	-0.614380915021918	-0.2493123795107551	2.042409839387902	-0.4846646467800825	-0.2960648782215015	2.0362838926053306	-0.341768997355094	-0.2740914375467156	2.0712356454451393	-0.43507837810815136	-0.19637107836913886	2.022274304462919	-0.6383089437030592	-1.2212864510682195	1.8760647395400551	0.3583404107943359	-0.15145334982230613	1.9162127253032728	-0.6350255437011942
3	0.1	-0.23169277158207133	1.8752409853285286	-0.5026336613499612	-0.24634404153582892	1.8758890723746549	-0.4464861501455253	-0.2671889639101383	1.725249165829923	-0.46482772293359736													-0.21719865187849355	1.8749084076888318	-0.5533893411379883	-0.20549380783380458	1.7325550578655298	-0.5239977420434309	-0.16482360035204105	1.6180298155069257	-0.3325894297275912	-0.18442571492441398	1.6156731488921492	-0.5108301423032073	-0.18452609967737443	1.6213713539739685	-0.5075230612755869	-0.2151458484882325	1.612911700402419	-0.46126733904476874	-0.22397881669384248	2.034753855177842	-0.5575537945061125	-0.24024297831676883	2.0840281967556895	-0.5949758013235878	-0.247227315072643	2.045933954146783	-0.47938500749009205	-0.2895243079593269	2.041929253335694	-0.33214424920559216	-0.2747018098496781	2.0870045633973886	-0.4281868250427159	-0.19699538862199445	2.0265565140941946	-0.6415913328489838	-1.2544852788706036	1.8741084608366159	0.40801859976783295	-0.15759474641874366	1.9110446771417051	-0.6370736397292969
4	0.13333333333333333	-0.23296047142365595	1.8753404443395505	-0.5060745251003124	-0.24886621217953714	1.8754763165253374	-0.4528711564402286	-0.26621306427317654	1.7276754511934633	-0.47081027721506985													-0.21898796868220816	1.874622182141846	-0.5599012614959364	-0.2061962276340024	1.7317758270127708	-0.5186693448951538	-0.17033815282611484	1.620259747314757	-0.34973530947917586	-0.18491914598480116	1.6135279476343949	-0.5139606010656129	-0.1853578057257573	1.6215901506803012	-0.5101349304955641	-0.2151458484882325	1.612911700402419	-0.46126733904476874	-0.2210501809217135	2.036981823903467	-0.5570012228168538	-0.24329764530450557	2.0926505084331346	-0.5806768211401308	-0.24427437073838643	2.046745531242101	-0.47053375370388656	-0.28298373769715224	2.047574614066057	-0.32251950105609034	-0.27531218215264064	2.102773481349638	-0.4212952719772804	-0.19583254716455326	2.028840812762076	-0.647209099427778	-1.2876841066729876	1.8721521821331766	0.45769678874133	-0.1637361430151812	1.9058766289801374	-0.6391217357573995
